# xmcd
# 
# Track frame offsets:
#     150
#     21518
#     37613
#     57690
#     73613
#     90992
#     102761
#     119486
#     136750
#     154631
#     168710
# 
# Disc length: 2495
# 
# Revision: 0
# Processed by: cddbd v1.5.2PL0 Copyright (c) Steve Scherf et al.
# Submitted via: fre:ac v1.0.17
# 
DISCID=8c09bd0b
DTITLE=Los Mescaleros - Los Mescaleros
DYEAR=0
DGENRE=Blues
TTITLE0=Blue Malaise
TTITLE1=Big Dumb Ass
TTITLE2=Little Girl Lies
TTITLE3=Mamba Shake
TTITLE4=King Bee
TTITLE5=Lullaby
TTITLE6=I Want Everything
TTITLE7=John the Revelator
TTITLE8=Mescalmama
TTITLE9=Beautiful Girl
TTITLE10=Ennui (Goddess of Fools)
EXTD=
EXTT0=
EXTT1=
EXTT2=
EXTT3=
EXTT4=
EXTT5=
EXTT6=
EXTT7=
EXTT8=
EXTT9=
EXTT10=
PLAYORDER=
